<svg width="98" height="32" viewBox="0 0 98 32" fill="none" xmlns="http://www.w3.org/2000/svg">
<path d="M61.312 8.03799H63.6325L66.031 17.008L66.3625 18.3535H66.4795L66.8695 17.008L69.19 9.90999H71.257L73.5775 17.008L73.9675 18.334H74.0845L74.377 17.008L76.6585 8.03799H78.979L75.274 22H73.09L70.6915 14.6485L70.282 13.264H70.165L69.775 14.6485L67.357 22H65.173L61.312 8.03799ZM81.2594 10.7485C80.8434 10.7485 80.4924 10.6055 80.2064 10.3195C79.9334 10.0335 79.7969 9.68899 79.7969 9.28599C79.7969 8.88299 79.9334 8.53849 80.2064 8.25249C80.4924 7.96649 80.8434 7.82349 81.2594 7.82349C81.6624 7.82349 82.0004 7.96649 82.2734 8.25249C82.5594 8.53849 82.7024 8.88299 82.7024 9.28599C82.7024 9.68899 82.5594 10.0335 82.2734 10.3195C82.0004 10.6055 81.6624 10.7485 81.2594 10.7485ZM80.1674 22V12.445H82.3319V22H80.1674ZM84.677 8.03799H86.8415V16.1305H86.9195L90.5855 12.445H93.296V12.562L89.669 16.15L93.53 21.883V22H90.956L88.1285 17.6515L86.8415 18.919V22H84.677V8.03799ZM95.7892 10.7485C95.3732 10.7485 95.0222 10.6055 94.7362 10.3195C94.4632 10.0335 94.3267 9.68899 94.3267 9.28599C94.3267 8.88299 94.4632 8.53849 94.7362 8.25249C95.0222 7.96649 95.3732 7.82349 95.7892 7.82349C96.1922 7.82349 96.5302 7.96649 96.8032 8.25249C97.0892 8.53849 97.2322 8.88299 97.2322 9.28599C97.2322 9.68899 97.0892 10.0335 96.8032 10.3195C96.5302 10.6055 96.1922 10.7485 95.7892 10.7485ZM94.6972 22V12.445H96.8617V22H94.6972Z" fill="black"/>
<path d="M36 21.962V8H40.914C41.577 8 42.1945 8.1105 42.7665 8.3315C43.3515 8.5395 43.8585 8.8385 44.2875 9.2285C44.7165 9.6185 45.0545 10.0865 45.3015 10.6325C45.5485 11.1655 45.672 11.757 45.672 12.407C45.672 13.07 45.5485 13.6745 45.3015 14.2205C45.0545 14.7535 44.7165 15.215 44.2875 15.605C43.8585 15.995 43.3515 16.3005 42.7665 16.5215C42.1945 16.7295 41.577 16.8335 40.914 16.8335H38.6325V21.962H36ZM40.953 14.3375C41.642 14.3375 42.162 14.1425 42.513 13.7525C42.864 13.3625 43.0395 12.914 43.0395 12.407C43.0395 12.16 42.994 11.9195 42.903 11.6855C42.825 11.4515 42.695 11.25 42.513 11.081C42.344 10.899 42.1295 10.756 41.8695 10.652C41.6095 10.548 41.304 10.496 40.953 10.496H38.6325V14.3375H40.953ZM50.1725 10.496V13.733H55.769V16.229H50.1725V19.466H56.393V21.962H47.54V8H56.393V10.496H50.1725Z" fill="black"/>
<path fill-rule="evenodd" clip-rule="evenodd" d="M12 18C15.3138 18 18 15.3137 18 12C18 8.68629 15.3138 6 12 6C8.68636 6 6.00007 8.68629 6.00007 12C6.00007 15.3137 8.68636 18 12 18ZM12 24C18.6275 24 24 18.6274 24 12C24 5.37258 18.6275 0 12 0C5.37265 0 6.10352e-05 5.37258 6.10352e-05 12C6.10352e-05 18.6274 5.37265 24 12 24Z" fill="#FF9500"/>
<path fill-rule="evenodd" clip-rule="evenodd" d="M18 12C18 15.3137 15.3138 18 12 18C8.68634 18 6.00005 15.3137 6.00005 12C6.00005 8.68629 8.68634 6 12 6C15.3138 6 18 8.68629 18 12ZM24 12C24 18.6274 18.6275 24 12 24C9.8143 24 7.76505 23.4156 6 22.3946V12C6 10.3431 4.65685 9 3 9C1.3496 9 0.0104641 10.3327 6.10257e-05 11.9807C0.0105 5.36214 5.37908 0 12 0C18.6275 0 24 5.37258 24 12ZM6.10257e-05 11.9807C2.03622e-05 11.9871 0 11.9936 0 12V29C0 30.6569 1.34315 32 3 32C4.65685 32 6 30.6569 6 29V22.3946C2.41322 20.3197 4.57764e-05 16.4417 4.57764e-05 12C4.57764e-05 11.9936 5.08607e-05 11.9871 6.10257e-05 11.9807Z" fill="#FBBC04"/>
<path fill-rule="evenodd" clip-rule="evenodd" d="M18 12C18 8.68629 15.3137 6 12 6V0C18.6274 0 24 5.37258 24 12C24 18.6274 18.6274 24 12 24V18C15.3137 18 18 15.3137 18 12Z" fill="#4285F4"/>
<path fill-rule="evenodd" clip-rule="evenodd" d="M12 18C15.3137 18 18 15.3137 18 12H24C24 18.6274 18.6274 24 12 24V18Z" fill="#34A853"/>
<path fill-rule="evenodd" clip-rule="evenodd" d="M12 6C8.68629 6 6 8.68629 6 12H0C0 5.37258 5.37258 0 12 0V6Z" fill="#EA4335"/>
</svg>
